<mxfile host="app.diagrams.net" agent="Mozilla/5.0 (Windows NT 10.0; Win64; x64) AppleWebKit/537.36 (KHTML, like Gecko) Chrome/134.0.0.0 Safari/537.36" version="26.1.1">
  <diagram id="C5RBs43oDa-KdzZeNtuy" name="Page-1">
    <mxGraphModel dx="1434" dy="786" grid="1" gridSize="10" guides="1" tooltips="1" connect="1" arrows="1" fold="1" page="1" pageScale="1" pageWidth="827" pageHeight="1169" math="0" shadow="0">
      <root>
        <mxCell id="WIyWlLk6GJQsqaUBKTNV-0" />
        <mxCell id="WIyWlLk6GJQsqaUBKTNV-1" parent="WIyWlLk6GJQsqaUBKTNV-0" />
        <mxCell id="zkfFHV4jXpPFQw0GAbJ--0" value="CAMPO" style="swimlane;fontStyle=2;align=center;verticalAlign=top;childLayout=stackLayout;horizontal=1;startSize=26;horizontalStack=0;resizeParent=1;resizeLast=0;collapsible=1;marginBottom=0;rounded=0;shadow=0;strokeWidth=1;" parent="WIyWlLk6GJQsqaUBKTNV-1" vertex="1">
          <mxGeometry x="40" y="120" width="160" height="180" as="geometry">
            <mxRectangle x="230" y="140" width="160" height="26" as="alternateBounds" />
          </mxGeometry>
        </mxCell>
        <mxCell id="3Ne4XTjtrNpxsKXf2rg7-56" value="id_user" style="text;html=1;align=center;verticalAlign=middle;resizable=0;points=[];autosize=1;strokeColor=none;fillColor=none;" parent="zkfFHV4jXpPFQw0GAbJ--0" vertex="1">
          <mxGeometry y="26" width="160" height="30" as="geometry" />
        </mxCell>
        <mxCell id="3Ne4XTjtrNpxsKXf2rg7-57" value="nomeUser" style="text;html=1;align=center;verticalAlign=middle;resizable=0;points=[];autosize=1;strokeColor=none;fillColor=none;" parent="zkfFHV4jXpPFQw0GAbJ--0" vertex="1">
          <mxGeometry y="56" width="160" height="30" as="geometry" />
        </mxCell>
        <mxCell id="3Ne4XTjtrNpxsKXf2rg7-58" value="emailUser" style="text;html=1;align=center;verticalAlign=middle;resizable=0;points=[];autosize=1;strokeColor=none;fillColor=none;" parent="zkfFHV4jXpPFQw0GAbJ--0" vertex="1">
          <mxGeometry y="86" width="160" height="30" as="geometry" />
        </mxCell>
        <mxCell id="3Ne4XTjtrNpxsKXf2rg7-59" value="senhaUser" style="text;html=1;align=center;verticalAlign=middle;resizable=0;points=[];autosize=1;strokeColor=none;fillColor=none;" parent="zkfFHV4jXpPFQw0GAbJ--0" vertex="1">
          <mxGeometry y="116" width="160" height="30" as="geometry" />
        </mxCell>
        <mxCell id="3Ne4XTjtrNpxsKXf2rg7-60" value="perfilUser" style="text;html=1;align=center;verticalAlign=middle;resizable=0;points=[];autosize=1;strokeColor=none;fillColor=none;" parent="zkfFHV4jXpPFQw0GAbJ--0" vertex="1">
          <mxGeometry y="146" width="160" height="30" as="geometry" />
        </mxCell>
        <mxCell id="3Ne4XTjtrNpxsKXf2rg7-0" value="TIPO" style="swimlane;fontStyle=2;align=center;verticalAlign=top;childLayout=stackLayout;horizontal=1;startSize=26;horizontalStack=0;resizeParent=1;resizeLast=0;collapsible=1;marginBottom=0;rounded=0;shadow=0;strokeWidth=1;" parent="WIyWlLk6GJQsqaUBKTNV-1" vertex="1">
          <mxGeometry x="200" y="120" width="160" height="180" as="geometry">
            <mxRectangle x="230" y="140" width="160" height="26" as="alternateBounds" />
          </mxGeometry>
        </mxCell>
        <mxCell id="3Ne4XTjtrNpxsKXf2rg7-61" value="int (PK)" style="text;html=1;align=center;verticalAlign=middle;resizable=0;points=[];autosize=1;strokeColor=none;fillColor=none;" parent="3Ne4XTjtrNpxsKXf2rg7-0" vertex="1">
          <mxGeometry y="26" width="160" height="30" as="geometry" />
        </mxCell>
        <mxCell id="3Ne4XTjtrNpxsKXf2rg7-63" value="NVarChar (100)" style="text;html=1;align=center;verticalAlign=middle;resizable=0;points=[];autosize=1;strokeColor=none;fillColor=none;" parent="3Ne4XTjtrNpxsKXf2rg7-0" vertex="1">
          <mxGeometry y="56" width="160" height="30" as="geometry" />
        </mxCell>
        <mxCell id="3Ne4XTjtrNpxsKXf2rg7-64" value="NVarChar (MAX) (Único)" style="text;html=1;align=center;verticalAlign=middle;resizable=0;points=[];autosize=1;strokeColor=none;fillColor=none;" parent="3Ne4XTjtrNpxsKXf2rg7-0" vertex="1">
          <mxGeometry y="86" width="160" height="30" as="geometry" />
        </mxCell>
        <mxCell id="3Ne4XTjtrNpxsKXf2rg7-65" value="NVarChar (255)" style="text;html=1;align=center;verticalAlign=middle;resizable=0;points=[];autosize=1;strokeColor=none;fillColor=none;" parent="3Ne4XTjtrNpxsKXf2rg7-0" vertex="1">
          <mxGeometry y="116" width="160" height="30" as="geometry" />
        </mxCell>
        <mxCell id="3Ne4XTjtrNpxsKXf2rg7-67" value="NVarChar (50)" style="text;html=1;align=center;verticalAlign=middle;resizable=0;points=[];autosize=1;strokeColor=none;fillColor=none;" parent="3Ne4XTjtrNpxsKXf2rg7-0" vertex="1">
          <mxGeometry y="146" width="160" height="30" as="geometry" />
        </mxCell>
        <mxCell id="3Ne4XTjtrNpxsKXf2rg7-72" value="TABELA DE USUÁRIOS" style="rounded=0;whiteSpace=wrap;html=1;" parent="WIyWlLk6GJQsqaUBKTNV-1" vertex="1">
          <mxGeometry x="120" y="80" width="160" height="30" as="geometry" />
        </mxCell>
        <mxCell id="3Ne4XTjtrNpxsKXf2rg7-74" value="CAMPO" style="swimlane;fontStyle=2;align=center;verticalAlign=top;childLayout=stackLayout;horizontal=1;startSize=26;horizontalStack=0;resizeParent=1;resizeLast=0;collapsible=1;marginBottom=0;rounded=0;shadow=0;strokeWidth=1;" parent="WIyWlLk6GJQsqaUBKTNV-1" vertex="1">
          <mxGeometry x="440" y="120" width="160" height="210" as="geometry">
            <mxRectangle x="230" y="140" width="160" height="26" as="alternateBounds" />
          </mxGeometry>
        </mxCell>
        <mxCell id="3Ne4XTjtrNpxsKXf2rg7-75" value="id_cliente" style="text;html=1;align=center;verticalAlign=middle;resizable=0;points=[];autosize=1;strokeColor=none;fillColor=none;" parent="3Ne4XTjtrNpxsKXf2rg7-74" vertex="1">
          <mxGeometry y="26" width="160" height="30" as="geometry" />
        </mxCell>
        <mxCell id="3Ne4XTjtrNpxsKXf2rg7-76" value="nomeCliente" style="text;html=1;align=center;verticalAlign=middle;resizable=0;points=[];autosize=1;strokeColor=none;fillColor=none;" parent="3Ne4XTjtrNpxsKXf2rg7-74" vertex="1">
          <mxGeometry y="56" width="160" height="30" as="geometry" />
        </mxCell>
        <mxCell id="3Ne4XTjtrNpxsKXf2rg7-77" value="cpfCliente" style="text;html=1;align=center;verticalAlign=middle;resizable=0;points=[];autosize=1;strokeColor=none;fillColor=none;" parent="3Ne4XTjtrNpxsKXf2rg7-74" vertex="1">
          <mxGeometry y="86" width="160" height="30" as="geometry" />
        </mxCell>
        <mxCell id="3Ne4XTjtrNpxsKXf2rg7-78" value="telefoneCliente" style="text;html=1;align=center;verticalAlign=middle;resizable=0;points=[];autosize=1;strokeColor=none;fillColor=none;" parent="3Ne4XTjtrNpxsKXf2rg7-74" vertex="1">
          <mxGeometry y="116" width="160" height="30" as="geometry" />
        </mxCell>
        <mxCell id="3Ne4XTjtrNpxsKXf2rg7-79" value="emailCliente" style="text;html=1;align=center;verticalAlign=middle;resizable=0;points=[];autosize=1;strokeColor=none;fillColor=none;" parent="3Ne4XTjtrNpxsKXf2rg7-74" vertex="1">
          <mxGeometry y="146" width="160" height="30" as="geometry" />
        </mxCell>
        <mxCell id="3Ne4XTjtrNpxsKXf2rg7-88" value="enderecoCliente" style="text;html=1;align=center;verticalAlign=middle;resizable=0;points=[];autosize=1;strokeColor=none;fillColor=none;" parent="3Ne4XTjtrNpxsKXf2rg7-74" vertex="1">
          <mxGeometry y="176" width="160" height="30" as="geometry" />
        </mxCell>
        <mxCell id="3Ne4XTjtrNpxsKXf2rg7-80" value="TIPO" style="swimlane;fontStyle=2;align=center;verticalAlign=top;childLayout=stackLayout;horizontal=1;startSize=26;horizontalStack=0;resizeParent=1;resizeLast=0;collapsible=1;marginBottom=0;rounded=0;shadow=0;strokeWidth=1;" parent="WIyWlLk6GJQsqaUBKTNV-1" vertex="1">
          <mxGeometry x="600" y="120" width="160" height="210" as="geometry">
            <mxRectangle x="230" y="140" width="160" height="26" as="alternateBounds" />
          </mxGeometry>
        </mxCell>
        <mxCell id="3Ne4XTjtrNpxsKXf2rg7-81" value="int (PK)" style="text;html=1;align=center;verticalAlign=middle;resizable=0;points=[];autosize=1;strokeColor=none;fillColor=none;" parent="3Ne4XTjtrNpxsKXf2rg7-80" vertex="1">
          <mxGeometry y="26" width="160" height="30" as="geometry" />
        </mxCell>
        <mxCell id="3Ne4XTjtrNpxsKXf2rg7-82" value="NVarChar (100)" style="text;html=1;align=center;verticalAlign=middle;resizable=0;points=[];autosize=1;strokeColor=none;fillColor=none;" parent="3Ne4XTjtrNpxsKXf2rg7-80" vertex="1">
          <mxGeometry y="56" width="160" height="30" as="geometry" />
        </mxCell>
        <mxCell id="3Ne4XTjtrNpxsKXf2rg7-83" value="NVarChar (14) (Único)" style="text;html=1;align=center;verticalAlign=middle;resizable=0;points=[];autosize=1;strokeColor=none;fillColor=none;" parent="3Ne4XTjtrNpxsKXf2rg7-80" vertex="1">
          <mxGeometry y="86" width="160" height="30" as="geometry" />
        </mxCell>
        <mxCell id="3Ne4XTjtrNpxsKXf2rg7-84" value="NVarChar (15)" style="text;html=1;align=center;verticalAlign=middle;resizable=0;points=[];autosize=1;strokeColor=none;fillColor=none;" parent="3Ne4XTjtrNpxsKXf2rg7-80" vertex="1">
          <mxGeometry y="116" width="160" height="30" as="geometry" />
        </mxCell>
        <mxCell id="3Ne4XTjtrNpxsKXf2rg7-85" value="NVarChar (MAX)" style="text;html=1;align=center;verticalAlign=middle;resizable=0;points=[];autosize=1;strokeColor=none;fillColor=none;" parent="3Ne4XTjtrNpxsKXf2rg7-80" vertex="1">
          <mxGeometry y="146" width="160" height="30" as="geometry" />
        </mxCell>
        <mxCell id="3Ne4XTjtrNpxsKXf2rg7-86" value="TABELA DE CLIENTES" style="rounded=0;whiteSpace=wrap;html=1;" parent="WIyWlLk6GJQsqaUBKTNV-1" vertex="1">
          <mxGeometry x="520" y="80" width="160" height="30" as="geometry" />
        </mxCell>
        <mxCell id="3Ne4XTjtrNpxsKXf2rg7-89" value="NVarChar (MAX)" style="text;html=1;align=center;verticalAlign=middle;resizable=0;points=[];autosize=1;strokeColor=none;fillColor=none;" parent="WIyWlLk6GJQsqaUBKTNV-1" vertex="1">
          <mxGeometry x="625" y="298" width="110" height="30" as="geometry" />
        </mxCell>
        <mxCell id="3Ne4XTjtrNpxsKXf2rg7-91" value="CAMPO" style="swimlane;fontStyle=2;align=center;verticalAlign=top;childLayout=stackLayout;horizontal=1;startSize=26;horizontalStack=0;resizeParent=1;resizeLast=0;collapsible=1;marginBottom=0;rounded=0;shadow=0;strokeWidth=1;" parent="WIyWlLk6GJQsqaUBKTNV-1" vertex="1">
          <mxGeometry x="840" y="120" width="160" height="210" as="geometry">
            <mxRectangle x="230" y="140" width="160" height="26" as="alternateBounds" />
          </mxGeometry>
        </mxCell>
        <mxCell id="3Ne4XTjtrNpxsKXf2rg7-92" value="id_for" style="text;html=1;align=center;verticalAlign=middle;resizable=0;points=[];autosize=1;strokeColor=none;fillColor=none;" parent="3Ne4XTjtrNpxsKXf2rg7-91" vertex="1">
          <mxGeometry y="26" width="160" height="30" as="geometry" />
        </mxCell>
        <mxCell id="3Ne4XTjtrNpxsKXf2rg7-93" value="nomeFor" style="text;html=1;align=center;verticalAlign=middle;resizable=0;points=[];autosize=1;strokeColor=none;fillColor=none;" parent="3Ne4XTjtrNpxsKXf2rg7-91" vertex="1">
          <mxGeometry y="56" width="160" height="30" as="geometry" />
        </mxCell>
        <mxCell id="3Ne4XTjtrNpxsKXf2rg7-94" value="cnpjFor" style="text;html=1;align=center;verticalAlign=middle;resizable=0;points=[];autosize=1;strokeColor=none;fillColor=none;" parent="3Ne4XTjtrNpxsKXf2rg7-91" vertex="1">
          <mxGeometry y="86" width="160" height="30" as="geometry" />
        </mxCell>
        <mxCell id="3Ne4XTjtrNpxsKXf2rg7-95" value="telefoneFor" style="text;html=1;align=center;verticalAlign=middle;resizable=0;points=[];autosize=1;strokeColor=none;fillColor=none;" parent="3Ne4XTjtrNpxsKXf2rg7-91" vertex="1">
          <mxGeometry y="116" width="160" height="30" as="geometry" />
        </mxCell>
        <mxCell id="3Ne4XTjtrNpxsKXf2rg7-96" value="emailFor" style="text;html=1;align=center;verticalAlign=middle;resizable=0;points=[];autosize=1;strokeColor=none;fillColor=none;" parent="3Ne4XTjtrNpxsKXf2rg7-91" vertex="1">
          <mxGeometry y="146" width="160" height="30" as="geometry" />
        </mxCell>
        <mxCell id="3Ne4XTjtrNpxsKXf2rg7-97" value="enderecoFor" style="text;html=1;align=center;verticalAlign=middle;resizable=0;points=[];autosize=1;strokeColor=none;fillColor=none;" parent="3Ne4XTjtrNpxsKXf2rg7-91" vertex="1">
          <mxGeometry y="176" width="160" height="30" as="geometry" />
        </mxCell>
        <mxCell id="3Ne4XTjtrNpxsKXf2rg7-98" value="TIPO" style="swimlane;fontStyle=2;align=center;verticalAlign=top;childLayout=stackLayout;horizontal=1;startSize=26;horizontalStack=0;resizeParent=1;resizeLast=0;collapsible=1;marginBottom=0;rounded=0;shadow=0;strokeWidth=1;" parent="WIyWlLk6GJQsqaUBKTNV-1" vertex="1">
          <mxGeometry x="1000" y="120" width="160" height="210" as="geometry">
            <mxRectangle x="230" y="140" width="160" height="26" as="alternateBounds" />
          </mxGeometry>
        </mxCell>
        <mxCell id="3Ne4XTjtrNpxsKXf2rg7-99" value="int (PK)" style="text;html=1;align=center;verticalAlign=middle;resizable=0;points=[];autosize=1;strokeColor=none;fillColor=none;" parent="3Ne4XTjtrNpxsKXf2rg7-98" vertex="1">
          <mxGeometry y="26" width="160" height="30" as="geometry" />
        </mxCell>
        <mxCell id="3Ne4XTjtrNpxsKXf2rg7-100" value="NVarChar (100)" style="text;html=1;align=center;verticalAlign=middle;resizable=0;points=[];autosize=1;strokeColor=none;fillColor=none;" parent="3Ne4XTjtrNpxsKXf2rg7-98" vertex="1">
          <mxGeometry y="56" width="160" height="30" as="geometry" />
        </mxCell>
        <mxCell id="3Ne4XTjtrNpxsKXf2rg7-101" value="NVarChar (18) (Único)" style="text;html=1;align=center;verticalAlign=middle;resizable=0;points=[];autosize=1;strokeColor=none;fillColor=none;" parent="3Ne4XTjtrNpxsKXf2rg7-98" vertex="1">
          <mxGeometry y="86" width="160" height="30" as="geometry" />
        </mxCell>
        <mxCell id="3Ne4XTjtrNpxsKXf2rg7-102" value="NVarChar (15)" style="text;html=1;align=center;verticalAlign=middle;resizable=0;points=[];autosize=1;strokeColor=none;fillColor=none;" parent="3Ne4XTjtrNpxsKXf2rg7-98" vertex="1">
          <mxGeometry y="116" width="160" height="30" as="geometry" />
        </mxCell>
        <mxCell id="3Ne4XTjtrNpxsKXf2rg7-103" value="NVarChar (MAX)" style="text;html=1;align=center;verticalAlign=middle;resizable=0;points=[];autosize=1;strokeColor=none;fillColor=none;" parent="3Ne4XTjtrNpxsKXf2rg7-98" vertex="1">
          <mxGeometry y="146" width="160" height="30" as="geometry" />
        </mxCell>
        <mxCell id="3Ne4XTjtrNpxsKXf2rg7-104" value="TABELA DE FORNECEDORES" style="rounded=0;whiteSpace=wrap;html=1;" parent="WIyWlLk6GJQsqaUBKTNV-1" vertex="1">
          <mxGeometry x="900" y="80" width="190" height="30" as="geometry" />
        </mxCell>
        <mxCell id="3Ne4XTjtrNpxsKXf2rg7-105" value="NVarChar (MAX)" style="text;html=1;align=center;verticalAlign=middle;resizable=0;points=[];autosize=1;strokeColor=none;fillColor=none;" parent="WIyWlLk6GJQsqaUBKTNV-1" vertex="1">
          <mxGeometry x="1025" y="298" width="110" height="30" as="geometry" />
        </mxCell>
        <mxCell id="3Ne4XTjtrNpxsKXf2rg7-106" value="CAMPO" style="swimlane;fontStyle=2;align=center;verticalAlign=top;childLayout=stackLayout;horizontal=1;startSize=26;horizontalStack=0;resizeParent=1;resizeLast=0;collapsible=1;marginBottom=0;rounded=0;shadow=0;strokeWidth=1;" parent="WIyWlLk6GJQsqaUBKTNV-1" vertex="1">
          <mxGeometry x="40" y="420" width="160" height="86" as="geometry">
            <mxRectangle x="230" y="140" width="160" height="26" as="alternateBounds" />
          </mxGeometry>
        </mxCell>
        <mxCell id="3Ne4XTjtrNpxsKXf2rg7-107" value="id_categoria" style="text;html=1;align=center;verticalAlign=middle;resizable=0;points=[];autosize=1;strokeColor=none;fillColor=none;" parent="3Ne4XTjtrNpxsKXf2rg7-106" vertex="1">
          <mxGeometry y="26" width="160" height="30" as="geometry" />
        </mxCell>
        <mxCell id="3Ne4XTjtrNpxsKXf2rg7-108" value="nomeCategoria" style="text;html=1;align=center;verticalAlign=middle;resizable=0;points=[];autosize=1;strokeColor=none;fillColor=none;" parent="3Ne4XTjtrNpxsKXf2rg7-106" vertex="1">
          <mxGeometry y="56" width="160" height="30" as="geometry" />
        </mxCell>
        <mxCell id="3Ne4XTjtrNpxsKXf2rg7-113" value="TIPO" style="swimlane;fontStyle=2;align=center;verticalAlign=top;childLayout=stackLayout;horizontal=1;startSize=26;horizontalStack=0;resizeParent=1;resizeLast=0;collapsible=1;marginBottom=0;rounded=0;shadow=0;strokeWidth=1;" parent="WIyWlLk6GJQsqaUBKTNV-1" vertex="1">
          <mxGeometry x="200" y="420" width="160" height="86" as="geometry">
            <mxRectangle x="230" y="140" width="160" height="26" as="alternateBounds" />
          </mxGeometry>
        </mxCell>
        <mxCell id="3Ne4XTjtrNpxsKXf2rg7-114" value="int (PK)" style="text;html=1;align=center;verticalAlign=middle;resizable=0;points=[];autosize=1;strokeColor=none;fillColor=none;" parent="3Ne4XTjtrNpxsKXf2rg7-113" vertex="1">
          <mxGeometry y="26" width="160" height="30" as="geometry" />
        </mxCell>
        <mxCell id="3Ne4XTjtrNpxsKXf2rg7-115" value="NVarChar (100)" style="text;html=1;align=center;verticalAlign=middle;resizable=0;points=[];autosize=1;strokeColor=none;fillColor=none;" parent="3Ne4XTjtrNpxsKXf2rg7-113" vertex="1">
          <mxGeometry y="56" width="160" height="30" as="geometry" />
        </mxCell>
        <mxCell id="3Ne4XTjtrNpxsKXf2rg7-119" value="TABELA DE CATEGORIAS" style="rounded=0;whiteSpace=wrap;html=1;" parent="WIyWlLk6GJQsqaUBKTNV-1" vertex="1">
          <mxGeometry x="120" y="380" width="160" height="30" as="geometry" />
        </mxCell>
        <mxCell id="3Ne4XTjtrNpxsKXf2rg7-121" value="CAMPO" style="swimlane;fontStyle=2;align=center;verticalAlign=top;childLayout=stackLayout;horizontal=1;startSize=26;horizontalStack=0;resizeParent=1;resizeLast=0;collapsible=1;marginBottom=0;rounded=0;shadow=0;strokeWidth=1;" parent="WIyWlLk6GJQsqaUBKTNV-1" vertex="1">
          <mxGeometry x="440" y="420" width="160" height="86" as="geometry">
            <mxRectangle x="230" y="140" width="160" height="26" as="alternateBounds" />
          </mxGeometry>
        </mxCell>
        <mxCell id="3Ne4XTjtrNpxsKXf2rg7-122" value="id_marcas" style="text;html=1;align=center;verticalAlign=middle;resizable=0;points=[];autosize=1;strokeColor=none;fillColor=none;" parent="3Ne4XTjtrNpxsKXf2rg7-121" vertex="1">
          <mxGeometry y="26" width="160" height="30" as="geometry" />
        </mxCell>
        <mxCell id="3Ne4XTjtrNpxsKXf2rg7-123" value="nomeMarcas" style="text;html=1;align=center;verticalAlign=middle;resizable=0;points=[];autosize=1;strokeColor=none;fillColor=none;" parent="3Ne4XTjtrNpxsKXf2rg7-121" vertex="1">
          <mxGeometry y="56" width="160" height="30" as="geometry" />
        </mxCell>
        <mxCell id="3Ne4XTjtrNpxsKXf2rg7-124" value="TIPO" style="swimlane;fontStyle=2;align=center;verticalAlign=top;childLayout=stackLayout;horizontal=1;startSize=26;horizontalStack=0;resizeParent=1;resizeLast=0;collapsible=1;marginBottom=0;rounded=0;shadow=0;strokeWidth=1;" parent="WIyWlLk6GJQsqaUBKTNV-1" vertex="1">
          <mxGeometry x="600" y="420" width="160" height="86" as="geometry">
            <mxRectangle x="230" y="140" width="160" height="26" as="alternateBounds" />
          </mxGeometry>
        </mxCell>
        <mxCell id="3Ne4XTjtrNpxsKXf2rg7-125" value="int (PK)" style="text;html=1;align=center;verticalAlign=middle;resizable=0;points=[];autosize=1;strokeColor=none;fillColor=none;" parent="3Ne4XTjtrNpxsKXf2rg7-124" vertex="1">
          <mxGeometry y="26" width="160" height="30" as="geometry" />
        </mxCell>
        <mxCell id="3Ne4XTjtrNpxsKXf2rg7-126" value="NVarChar (100)" style="text;html=1;align=center;verticalAlign=middle;resizable=0;points=[];autosize=1;strokeColor=none;fillColor=none;" parent="3Ne4XTjtrNpxsKXf2rg7-124" vertex="1">
          <mxGeometry y="56" width="160" height="30" as="geometry" />
        </mxCell>
        <mxCell id="3Ne4XTjtrNpxsKXf2rg7-127" value="TABELA DE MARCAS" style="rounded=0;whiteSpace=wrap;html=1;" parent="WIyWlLk6GJQsqaUBKTNV-1" vertex="1">
          <mxGeometry x="520" y="380" width="160" height="30" as="geometry" />
        </mxCell>
        <mxCell id="3Ne4XTjtrNpxsKXf2rg7-128" value="CAMPO" style="swimlane;fontStyle=2;align=center;verticalAlign=top;childLayout=stackLayout;horizontal=1;startSize=26;horizontalStack=0;resizeParent=1;resizeLast=0;collapsible=1;marginBottom=0;rounded=0;shadow=0;strokeWidth=1;" parent="WIyWlLk6GJQsqaUBKTNV-1" vertex="1">
          <mxGeometry x="840" y="420" width="160" height="240" as="geometry">
            <mxRectangle x="230" y="140" width="160" height="26" as="alternateBounds" />
          </mxGeometry>
        </mxCell>
        <mxCell id="3Ne4XTjtrNpxsKXf2rg7-129" value="id_produto" style="text;html=1;align=center;verticalAlign=middle;resizable=0;points=[];autosize=1;strokeColor=none;fillColor=none;" parent="3Ne4XTjtrNpxsKXf2rg7-128" vertex="1">
          <mxGeometry y="26" width="160" height="30" as="geometry" />
        </mxCell>
        <mxCell id="3Ne4XTjtrNpxsKXf2rg7-130" value="nomePro" style="text;html=1;align=center;verticalAlign=middle;resizable=0;points=[];autosize=1;strokeColor=none;fillColor=none;" parent="3Ne4XTjtrNpxsKXf2rg7-128" vertex="1">
          <mxGeometry y="56" width="160" height="30" as="geometry" />
        </mxCell>
        <mxCell id="3Ne4XTjtrNpxsKXf2rg7-131" value="descricaoPro" style="text;html=1;align=center;verticalAlign=middle;resizable=0;points=[];autosize=1;strokeColor=none;fillColor=none;" parent="3Ne4XTjtrNpxsKXf2rg7-128" vertex="1">
          <mxGeometry y="86" width="160" height="30" as="geometry" />
        </mxCell>
        <mxCell id="3Ne4XTjtrNpxsKXf2rg7-132" value="precoPro" style="text;html=1;align=center;verticalAlign=middle;resizable=0;points=[];autosize=1;strokeColor=none;fillColor=none;" parent="3Ne4XTjtrNpxsKXf2rg7-128" vertex="1">
          <mxGeometry y="116" width="160" height="30" as="geometry" />
        </mxCell>
        <mxCell id="3Ne4XTjtrNpxsKXf2rg7-133" value="quantidade_estoque" style="text;html=1;align=center;verticalAlign=middle;resizable=0;points=[];autosize=1;strokeColor=none;fillColor=none;" parent="3Ne4XTjtrNpxsKXf2rg7-128" vertex="1">
          <mxGeometry y="146" width="160" height="30" as="geometry" />
        </mxCell>
        <mxCell id="3Ne4XTjtrNpxsKXf2rg7-134" value="id_categoria" style="text;html=1;align=center;verticalAlign=middle;resizable=0;points=[];autosize=1;strokeColor=none;fillColor=none;" parent="3Ne4XTjtrNpxsKXf2rg7-128" vertex="1">
          <mxGeometry y="176" width="160" height="30" as="geometry" />
        </mxCell>
        <mxCell id="3Ne4XTjtrNpxsKXf2rg7-144" value="id_marca" style="text;html=1;align=center;verticalAlign=middle;resizable=0;points=[];autosize=1;strokeColor=none;fillColor=none;" parent="3Ne4XTjtrNpxsKXf2rg7-128" vertex="1">
          <mxGeometry y="206" width="160" height="30" as="geometry" />
        </mxCell>
        <mxCell id="3Ne4XTjtrNpxsKXf2rg7-135" value="TIPO" style="swimlane;fontStyle=2;align=center;verticalAlign=top;childLayout=stackLayout;horizontal=1;startSize=26;horizontalStack=0;resizeParent=1;resizeLast=0;collapsible=1;marginBottom=0;rounded=0;shadow=0;strokeWidth=1;" parent="WIyWlLk6GJQsqaUBKTNV-1" vertex="1">
          <mxGeometry x="1000" y="420" width="160" height="240" as="geometry">
            <mxRectangle x="230" y="140" width="160" height="26" as="alternateBounds" />
          </mxGeometry>
        </mxCell>
        <mxCell id="3Ne4XTjtrNpxsKXf2rg7-136" value="int (PK)" style="text;html=1;align=center;verticalAlign=middle;resizable=0;points=[];autosize=1;strokeColor=none;fillColor=none;" parent="3Ne4XTjtrNpxsKXf2rg7-135" vertex="1">
          <mxGeometry y="26" width="160" height="30" as="geometry" />
        </mxCell>
        <mxCell id="3Ne4XTjtrNpxsKXf2rg7-137" value="NVarChar (MAX)" style="text;html=1;align=center;verticalAlign=middle;resizable=0;points=[];autosize=1;strokeColor=none;fillColor=none;" parent="3Ne4XTjtrNpxsKXf2rg7-135" vertex="1">
          <mxGeometry y="56" width="160" height="30" as="geometry" />
        </mxCell>
        <mxCell id="3Ne4XTjtrNpxsKXf2rg7-138" value="NVarChar (MAX)" style="text;html=1;align=center;verticalAlign=middle;resizable=0;points=[];autosize=1;strokeColor=none;fillColor=none;" parent="3Ne4XTjtrNpxsKXf2rg7-135" vertex="1">
          <mxGeometry y="86" width="160" height="30" as="geometry" />
        </mxCell>
        <mxCell id="3Ne4XTjtrNpxsKXf2rg7-139" value="Money" style="text;html=1;align=center;verticalAlign=middle;resizable=0;points=[];autosize=1;strokeColor=none;fillColor=none;" parent="3Ne4XTjtrNpxsKXf2rg7-135" vertex="1">
          <mxGeometry y="116" width="160" height="30" as="geometry" />
        </mxCell>
        <mxCell id="3Ne4XTjtrNpxsKXf2rg7-140" value="int" style="text;html=1;align=center;verticalAlign=middle;resizable=0;points=[];autosize=1;strokeColor=none;fillColor=none;" parent="3Ne4XTjtrNpxsKXf2rg7-135" vertex="1">
          <mxGeometry y="146" width="160" height="30" as="geometry" />
        </mxCell>
        <mxCell id="3Ne4XTjtrNpxsKXf2rg7-143" value="int (FK -&amp;gt; Categorias)" style="text;html=1;align=center;verticalAlign=middle;resizable=0;points=[];autosize=1;strokeColor=none;fillColor=none;" parent="3Ne4XTjtrNpxsKXf2rg7-135" vertex="1">
          <mxGeometry y="176" width="160" height="30" as="geometry" />
        </mxCell>
        <mxCell id="3Ne4XTjtrNpxsKXf2rg7-142" value="int (FK -&amp;gt; Marcas)" style="text;html=1;align=center;verticalAlign=middle;resizable=0;points=[];autosize=1;strokeColor=none;fillColor=none;" parent="3Ne4XTjtrNpxsKXf2rg7-135" vertex="1">
          <mxGeometry y="206" width="160" height="30" as="geometry" />
        </mxCell>
        <mxCell id="3Ne4XTjtrNpxsKXf2rg7-141" value="TABELA DE PRODUTOS" style="rounded=0;whiteSpace=wrap;html=1;" parent="WIyWlLk6GJQsqaUBKTNV-1" vertex="1">
          <mxGeometry x="900" y="380" width="190" height="30" as="geometry" />
        </mxCell>
        <mxCell id="3Ne4XTjtrNpxsKXf2rg7-147" value="CAMPO" style="swimlane;fontStyle=2;align=center;verticalAlign=top;childLayout=stackLayout;horizontal=1;startSize=26;horizontalStack=0;resizeParent=1;resizeLast=0;collapsible=1;marginBottom=0;rounded=0;shadow=0;strokeWidth=1;" parent="WIyWlLk6GJQsqaUBKTNV-1" vertex="1">
          <mxGeometry x="439" y="760" width="160" height="180" as="geometry">
            <mxRectangle x="230" y="140" width="160" height="26" as="alternateBounds" />
          </mxGeometry>
        </mxCell>
        <mxCell id="3Ne4XTjtrNpxsKXf2rg7-148" value="id_item_compra" style="text;html=1;align=center;verticalAlign=middle;resizable=0;points=[];autosize=1;strokeColor=none;fillColor=none;" parent="3Ne4XTjtrNpxsKXf2rg7-147" vertex="1">
          <mxGeometry y="26" width="160" height="30" as="geometry" />
        </mxCell>
        <mxCell id="3Ne4XTjtrNpxsKXf2rg7-149" value="id_compra" style="text;html=1;align=center;verticalAlign=middle;resizable=0;points=[];autosize=1;strokeColor=none;fillColor=none;" parent="3Ne4XTjtrNpxsKXf2rg7-147" vertex="1">
          <mxGeometry y="56" width="160" height="30" as="geometry" />
        </mxCell>
        <mxCell id="3Ne4XTjtrNpxsKXf2rg7-150" value="id_produto" style="text;html=1;align=center;verticalAlign=middle;resizable=0;points=[];autosize=1;strokeColor=none;fillColor=none;" parent="3Ne4XTjtrNpxsKXf2rg7-147" vertex="1">
          <mxGeometry y="86" width="160" height="30" as="geometry" />
        </mxCell>
        <mxCell id="3Ne4XTjtrNpxsKXf2rg7-151" value="quantidadeIC" style="text;html=1;align=center;verticalAlign=middle;resizable=0;points=[];autosize=1;strokeColor=none;fillColor=none;" parent="3Ne4XTjtrNpxsKXf2rg7-147" vertex="1">
          <mxGeometry y="116" width="160" height="30" as="geometry" />
        </mxCell>
        <mxCell id="3Ne4XTjtrNpxsKXf2rg7-152" value="preco_unitario" style="text;html=1;align=center;verticalAlign=middle;resizable=0;points=[];autosize=1;strokeColor=none;fillColor=none;" parent="3Ne4XTjtrNpxsKXf2rg7-147" vertex="1">
          <mxGeometry y="146" width="160" height="30" as="geometry" />
        </mxCell>
        <mxCell id="3Ne4XTjtrNpxsKXf2rg7-155" value="TIPO" style="swimlane;fontStyle=2;align=center;verticalAlign=top;childLayout=stackLayout;horizontal=1;startSize=26;horizontalStack=0;resizeParent=1;resizeLast=0;collapsible=1;marginBottom=0;rounded=0;shadow=0;strokeWidth=1;" parent="WIyWlLk6GJQsqaUBKTNV-1" vertex="1">
          <mxGeometry x="599" y="760" width="160" height="180" as="geometry">
            <mxRectangle x="230" y="140" width="160" height="26" as="alternateBounds" />
          </mxGeometry>
        </mxCell>
        <mxCell id="3Ne4XTjtrNpxsKXf2rg7-156" value="int (PK)" style="text;html=1;align=center;verticalAlign=middle;resizable=0;points=[];autosize=1;strokeColor=none;fillColor=none;" parent="3Ne4XTjtrNpxsKXf2rg7-155" vertex="1">
          <mxGeometry y="26" width="160" height="30" as="geometry" />
        </mxCell>
        <mxCell id="3Ne4XTjtrNpxsKXf2rg7-157" value="int (FK -&amp;gt; Compras)" style="text;html=1;align=center;verticalAlign=middle;resizable=0;points=[];autosize=1;strokeColor=none;fillColor=none;" parent="3Ne4XTjtrNpxsKXf2rg7-155" vertex="1">
          <mxGeometry y="56" width="160" height="30" as="geometry" />
        </mxCell>
        <mxCell id="3Ne4XTjtrNpxsKXf2rg7-158" value="int (FK -&amp;gt; Produtos)" style="text;html=1;align=center;verticalAlign=middle;resizable=0;points=[];autosize=1;strokeColor=none;fillColor=none;" parent="3Ne4XTjtrNpxsKXf2rg7-155" vertex="1">
          <mxGeometry y="86" width="160" height="30" as="geometry" />
        </mxCell>
        <mxCell id="3Ne4XTjtrNpxsKXf2rg7-159" value="int" style="text;html=1;align=center;verticalAlign=middle;resizable=0;points=[];autosize=1;strokeColor=none;fillColor=none;" parent="3Ne4XTjtrNpxsKXf2rg7-155" vertex="1">
          <mxGeometry y="116" width="160" height="30" as="geometry" />
        </mxCell>
        <mxCell id="3Ne4XTjtrNpxsKXf2rg7-160" value="Money" style="text;html=1;align=center;verticalAlign=middle;resizable=0;points=[];autosize=1;strokeColor=none;fillColor=none;" parent="3Ne4XTjtrNpxsKXf2rg7-155" vertex="1">
          <mxGeometry y="146" width="160" height="30" as="geometry" />
        </mxCell>
        <mxCell id="3Ne4XTjtrNpxsKXf2rg7-163" value="TABELA DE ITENS DE COMPRA" style="rounded=0;whiteSpace=wrap;html=1;" parent="WIyWlLk6GJQsqaUBKTNV-1" vertex="1">
          <mxGeometry x="499" y="720" width="190" height="30" as="geometry" />
        </mxCell>
        <mxCell id="3Ne4XTjtrNpxsKXf2rg7-164" value="CAMPO" style="swimlane;fontStyle=2;align=center;verticalAlign=top;childLayout=stackLayout;horizontal=1;startSize=26;horizontalStack=0;resizeParent=1;resizeLast=0;collapsible=1;marginBottom=0;rounded=0;shadow=0;strokeWidth=1;" parent="WIyWlLk6GJQsqaUBKTNV-1" vertex="1">
          <mxGeometry x="40" y="760" width="160" height="150" as="geometry">
            <mxRectangle x="230" y="140" width="160" height="26" as="alternateBounds" />
          </mxGeometry>
        </mxCell>
        <mxCell id="3Ne4XTjtrNpxsKXf2rg7-165" value="id_compra" style="text;html=1;align=center;verticalAlign=middle;resizable=0;points=[];autosize=1;strokeColor=none;fillColor=none;" parent="3Ne4XTjtrNpxsKXf2rg7-164" vertex="1">
          <mxGeometry y="26" width="160" height="30" as="geometry" />
        </mxCell>
        <mxCell id="3Ne4XTjtrNpxsKXf2rg7-166" value="id_compra" style="text;html=1;align=center;verticalAlign=middle;resizable=0;points=[];autosize=1;strokeColor=none;fillColor=none;" parent="3Ne4XTjtrNpxsKXf2rg7-164" vertex="1">
          <mxGeometry y="56" width="160" height="30" as="geometry" />
        </mxCell>
        <mxCell id="3Ne4XTjtrNpxsKXf2rg7-167" value="data_compra" style="text;html=1;align=center;verticalAlign=middle;resizable=0;points=[];autosize=1;strokeColor=none;fillColor=none;" parent="3Ne4XTjtrNpxsKXf2rg7-164" vertex="1">
          <mxGeometry y="86" width="160" height="30" as="geometry" />
        </mxCell>
        <mxCell id="3Ne4XTjtrNpxsKXf2rg7-177" value="totalCom" style="text;html=1;align=center;verticalAlign=middle;resizable=0;points=[];autosize=1;strokeColor=none;fillColor=none;" parent="3Ne4XTjtrNpxsKXf2rg7-164" vertex="1">
          <mxGeometry y="116" width="160" height="30" as="geometry" />
        </mxCell>
        <mxCell id="3Ne4XTjtrNpxsKXf2rg7-170" value="TIPO" style="swimlane;fontStyle=2;align=center;verticalAlign=top;childLayout=stackLayout;horizontal=1;startSize=26;horizontalStack=0;resizeParent=1;resizeLast=0;collapsible=1;marginBottom=0;rounded=0;shadow=0;strokeWidth=1;" parent="WIyWlLk6GJQsqaUBKTNV-1" vertex="1">
          <mxGeometry x="200" y="760" width="164" height="150" as="geometry">
            <mxRectangle x="230" y="140" width="160" height="26" as="alternateBounds" />
          </mxGeometry>
        </mxCell>
        <mxCell id="3Ne4XTjtrNpxsKXf2rg7-171" value="int (PK)" style="text;html=1;align=center;verticalAlign=middle;resizable=0;points=[];autosize=1;strokeColor=none;fillColor=none;" parent="3Ne4XTjtrNpxsKXf2rg7-170" vertex="1">
          <mxGeometry y="26" width="164" height="30" as="geometry" />
        </mxCell>
        <mxCell id="3Ne4XTjtrNpxsKXf2rg7-172" value="int (FK -&amp;gt; Fornecedores)" style="text;html=1;align=center;verticalAlign=middle;resizable=0;points=[];autosize=1;strokeColor=none;fillColor=none;" parent="3Ne4XTjtrNpxsKXf2rg7-170" vertex="1">
          <mxGeometry y="56" width="164" height="30" as="geometry" />
        </mxCell>
        <mxCell id="3Ne4XTjtrNpxsKXf2rg7-173" value="DateTime" style="text;html=1;align=center;verticalAlign=middle;resizable=0;points=[];autosize=1;strokeColor=none;fillColor=none;" parent="3Ne4XTjtrNpxsKXf2rg7-170" vertex="1">
          <mxGeometry y="86" width="164" height="30" as="geometry" />
        </mxCell>
        <mxCell id="3Ne4XTjtrNpxsKXf2rg7-176" value="TABELA DE COMPRA" style="rounded=0;whiteSpace=wrap;html=1;" parent="WIyWlLk6GJQsqaUBKTNV-1" vertex="1">
          <mxGeometry x="104" y="720" width="190" height="30" as="geometry" />
        </mxCell>
        <mxCell id="3Ne4XTjtrNpxsKXf2rg7-178" value="Money" style="text;html=1;align=center;verticalAlign=middle;resizable=0;points=[];autosize=1;strokeColor=none;fillColor=none;" parent="WIyWlLk6GJQsqaUBKTNV-1" vertex="1">
          <mxGeometry x="250" y="878" width="60" height="30" as="geometry" />
        </mxCell>
        <mxCell id="3Ne4XTjtrNpxsKXf2rg7-179" value="CAMPO" style="swimlane;fontStyle=2;align=center;verticalAlign=top;childLayout=stackLayout;horizontal=1;startSize=26;horizontalStack=0;resizeParent=1;resizeLast=0;collapsible=1;marginBottom=0;rounded=0;shadow=0;strokeWidth=1;" parent="WIyWlLk6GJQsqaUBKTNV-1" vertex="1">
          <mxGeometry x="40" y="1060" width="160" height="180" as="geometry">
            <mxRectangle x="230" y="140" width="160" height="26" as="alternateBounds" />
          </mxGeometry>
        </mxCell>
        <mxCell id="3Ne4XTjtrNpxsKXf2rg7-180" value="id_venda" style="text;html=1;align=center;verticalAlign=middle;resizable=0;points=[];autosize=1;strokeColor=none;fillColor=none;" parent="3Ne4XTjtrNpxsKXf2rg7-179" vertex="1">
          <mxGeometry y="26" width="160" height="30" as="geometry" />
        </mxCell>
        <mxCell id="3Ne4XTjtrNpxsKXf2rg7-181" value="id_cliente" style="text;html=1;align=center;verticalAlign=middle;resizable=0;points=[];autosize=1;strokeColor=none;fillColor=none;" parent="3Ne4XTjtrNpxsKXf2rg7-179" vertex="1">
          <mxGeometry y="56" width="160" height="30" as="geometry" />
        </mxCell>
        <mxCell id="3Ne4XTjtrNpxsKXf2rg7-182" value="id_usuario" style="text;html=1;align=center;verticalAlign=middle;resizable=0;points=[];autosize=1;strokeColor=none;fillColor=none;" parent="3Ne4XTjtrNpxsKXf2rg7-179" vertex="1">
          <mxGeometry y="86" width="160" height="30" as="geometry" />
        </mxCell>
        <mxCell id="3Ne4XTjtrNpxsKXf2rg7-183" value="data_venda" style="text;html=1;align=center;verticalAlign=middle;resizable=0;points=[];autosize=1;strokeColor=none;fillColor=none;" parent="3Ne4XTjtrNpxsKXf2rg7-179" vertex="1">
          <mxGeometry y="116" width="160" height="30" as="geometry" />
        </mxCell>
        <mxCell id="3Ne4XTjtrNpxsKXf2rg7-190" value="total" style="text;html=1;align=center;verticalAlign=middle;resizable=0;points=[];autosize=1;strokeColor=none;fillColor=none;" parent="3Ne4XTjtrNpxsKXf2rg7-179" vertex="1">
          <mxGeometry y="146" width="160" height="30" as="geometry" />
        </mxCell>
        <mxCell id="3Ne4XTjtrNpxsKXf2rg7-184" value="TIPO" style="swimlane;fontStyle=2;align=center;verticalAlign=top;childLayout=stackLayout;horizontal=1;startSize=26;horizontalStack=0;resizeParent=1;resizeLast=0;collapsible=1;marginBottom=0;rounded=0;shadow=0;strokeWidth=1;" parent="WIyWlLk6GJQsqaUBKTNV-1" vertex="1">
          <mxGeometry x="200" y="1060" width="164" height="180" as="geometry">
            <mxRectangle x="230" y="140" width="160" height="26" as="alternateBounds" />
          </mxGeometry>
        </mxCell>
        <mxCell id="3Ne4XTjtrNpxsKXf2rg7-185" value="int (PK)" style="text;html=1;align=center;verticalAlign=middle;resizable=0;points=[];autosize=1;strokeColor=none;fillColor=none;" parent="3Ne4XTjtrNpxsKXf2rg7-184" vertex="1">
          <mxGeometry y="26" width="164" height="30" as="geometry" />
        </mxCell>
        <mxCell id="3Ne4XTjtrNpxsKXf2rg7-186" value="int (FK -&amp;gt; Clientes)" style="text;html=1;align=center;verticalAlign=middle;resizable=0;points=[];autosize=1;strokeColor=none;fillColor=none;" parent="3Ne4XTjtrNpxsKXf2rg7-184" vertex="1">
          <mxGeometry y="56" width="164" height="30" as="geometry" />
        </mxCell>
        <mxCell id="3Ne4XTjtrNpxsKXf2rg7-191" value="int (FK -&amp;gt; Usuarios)" style="text;html=1;align=center;verticalAlign=middle;resizable=0;points=[];autosize=1;strokeColor=none;fillColor=none;" parent="3Ne4XTjtrNpxsKXf2rg7-184" vertex="1">
          <mxGeometry y="86" width="164" height="30" as="geometry" />
        </mxCell>
        <mxCell id="3Ne4XTjtrNpxsKXf2rg7-187" value="DateTime" style="text;html=1;align=center;verticalAlign=middle;resizable=0;points=[];autosize=1;strokeColor=none;fillColor=none;" parent="3Ne4XTjtrNpxsKXf2rg7-184" vertex="1">
          <mxGeometry y="116" width="164" height="30" as="geometry" />
        </mxCell>
        <mxCell id="3Ne4XTjtrNpxsKXf2rg7-189" value="Money" style="text;html=1;align=center;verticalAlign=middle;resizable=0;points=[];autosize=1;strokeColor=none;fillColor=none;" parent="3Ne4XTjtrNpxsKXf2rg7-184" vertex="1">
          <mxGeometry y="146" width="164" height="30" as="geometry" />
        </mxCell>
        <mxCell id="3Ne4XTjtrNpxsKXf2rg7-188" value="TABELA DE VENDA" style="rounded=0;whiteSpace=wrap;html=1;" parent="WIyWlLk6GJQsqaUBKTNV-1" vertex="1">
          <mxGeometry x="104" y="1020" width="190" height="30" as="geometry" />
        </mxCell>
        <mxCell id="3Ne4XTjtrNpxsKXf2rg7-192" value="CAMPO" style="swimlane;fontStyle=2;align=center;verticalAlign=top;childLayout=stackLayout;horizontal=1;startSize=26;horizontalStack=0;resizeParent=1;resizeLast=0;collapsible=1;marginBottom=0;rounded=0;shadow=0;strokeWidth=1;" parent="WIyWlLk6GJQsqaUBKTNV-1" vertex="1">
          <mxGeometry x="439" y="1060" width="160" height="180" as="geometry">
            <mxRectangle x="230" y="140" width="160" height="26" as="alternateBounds" />
          </mxGeometry>
        </mxCell>
        <mxCell id="3Ne4XTjtrNpxsKXf2rg7-193" value="id_item_venda" style="text;html=1;align=center;verticalAlign=middle;resizable=0;points=[];autosize=1;strokeColor=none;fillColor=none;" parent="3Ne4XTjtrNpxsKXf2rg7-192" vertex="1">
          <mxGeometry y="26" width="160" height="30" as="geometry" />
        </mxCell>
        <mxCell id="3Ne4XTjtrNpxsKXf2rg7-194" value="id_venda" style="text;html=1;align=center;verticalAlign=middle;resizable=0;points=[];autosize=1;strokeColor=none;fillColor=none;" parent="3Ne4XTjtrNpxsKXf2rg7-192" vertex="1">
          <mxGeometry y="56" width="160" height="30" as="geometry" />
        </mxCell>
        <mxCell id="3Ne4XTjtrNpxsKXf2rg7-195" value="id_produto" style="text;html=1;align=center;verticalAlign=middle;resizable=0;points=[];autosize=1;strokeColor=none;fillColor=none;" parent="3Ne4XTjtrNpxsKXf2rg7-192" vertex="1">
          <mxGeometry y="86" width="160" height="30" as="geometry" />
        </mxCell>
        <mxCell id="3Ne4XTjtrNpxsKXf2rg7-196" value="quantidadeIV" style="text;html=1;align=center;verticalAlign=middle;resizable=0;points=[];autosize=1;strokeColor=none;fillColor=none;" parent="3Ne4XTjtrNpxsKXf2rg7-192" vertex="1">
          <mxGeometry y="116" width="160" height="30" as="geometry" />
        </mxCell>
        <mxCell id="3Ne4XTjtrNpxsKXf2rg7-197" value="preco_unitario" style="text;html=1;align=center;verticalAlign=middle;resizable=0;points=[];autosize=1;strokeColor=none;fillColor=none;" parent="3Ne4XTjtrNpxsKXf2rg7-192" vertex="1">
          <mxGeometry y="146" width="160" height="30" as="geometry" />
        </mxCell>
        <mxCell id="3Ne4XTjtrNpxsKXf2rg7-198" value="TIPO" style="swimlane;fontStyle=2;align=center;verticalAlign=top;childLayout=stackLayout;horizontal=1;startSize=26;horizontalStack=0;resizeParent=1;resizeLast=0;collapsible=1;marginBottom=0;rounded=0;shadow=0;strokeWidth=1;" parent="WIyWlLk6GJQsqaUBKTNV-1" vertex="1">
          <mxGeometry x="599" y="1060" width="160" height="180" as="geometry">
            <mxRectangle x="230" y="140" width="160" height="26" as="alternateBounds" />
          </mxGeometry>
        </mxCell>
        <mxCell id="3Ne4XTjtrNpxsKXf2rg7-199" value="int (PK)" style="text;html=1;align=center;verticalAlign=middle;resizable=0;points=[];autosize=1;strokeColor=none;fillColor=none;" parent="3Ne4XTjtrNpxsKXf2rg7-198" vertex="1">
          <mxGeometry y="26" width="160" height="30" as="geometry" />
        </mxCell>
        <mxCell id="3Ne4XTjtrNpxsKXf2rg7-200" value="int (FK -&amp;gt; Vendas)" style="text;html=1;align=center;verticalAlign=middle;resizable=0;points=[];autosize=1;strokeColor=none;fillColor=none;" parent="3Ne4XTjtrNpxsKXf2rg7-198" vertex="1">
          <mxGeometry y="56" width="160" height="30" as="geometry" />
        </mxCell>
        <mxCell id="3Ne4XTjtrNpxsKXf2rg7-201" value="int (FK -&amp;gt; Produtos)" style="text;html=1;align=center;verticalAlign=middle;resizable=0;points=[];autosize=1;strokeColor=none;fillColor=none;" parent="3Ne4XTjtrNpxsKXf2rg7-198" vertex="1">
          <mxGeometry y="86" width="160" height="30" as="geometry" />
        </mxCell>
        <mxCell id="3Ne4XTjtrNpxsKXf2rg7-202" value="int" style="text;html=1;align=center;verticalAlign=middle;resizable=0;points=[];autosize=1;strokeColor=none;fillColor=none;" parent="3Ne4XTjtrNpxsKXf2rg7-198" vertex="1">
          <mxGeometry y="116" width="160" height="30" as="geometry" />
        </mxCell>
        <mxCell id="3Ne4XTjtrNpxsKXf2rg7-203" value="Money" style="text;html=1;align=center;verticalAlign=middle;resizable=0;points=[];autosize=1;strokeColor=none;fillColor=none;" parent="3Ne4XTjtrNpxsKXf2rg7-198" vertex="1">
          <mxGeometry y="146" width="160" height="30" as="geometry" />
        </mxCell>
        <mxCell id="3Ne4XTjtrNpxsKXf2rg7-204" value="TABELA DE ITENS DE VENDA" style="rounded=0;whiteSpace=wrap;html=1;" parent="WIyWlLk6GJQsqaUBKTNV-1" vertex="1">
          <mxGeometry x="499" y="1020" width="190" height="30" as="geometry" />
        </mxCell>
        <mxCell id="3Ne4XTjtrNpxsKXf2rg7-205" value="CAMPO" style="swimlane;fontStyle=2;align=center;verticalAlign=top;childLayout=stackLayout;horizontal=1;startSize=26;horizontalStack=0;resizeParent=1;resizeLast=0;collapsible=1;marginBottom=0;rounded=0;shadow=0;strokeWidth=1;" parent="WIyWlLk6GJQsqaUBKTNV-1" vertex="1">
          <mxGeometry x="839" y="760" width="160" height="120" as="geometry">
            <mxRectangle x="230" y="140" width="160" height="26" as="alternateBounds" />
          </mxGeometry>
        </mxCell>
        <mxCell id="3Ne4XTjtrNpxsKXf2rg7-206" value="id_estoque" style="text;html=1;align=center;verticalAlign=middle;resizable=0;points=[];autosize=1;strokeColor=none;fillColor=none;" parent="3Ne4XTjtrNpxsKXf2rg7-205" vertex="1">
          <mxGeometry y="26" width="160" height="30" as="geometry" />
        </mxCell>
        <mxCell id="3Ne4XTjtrNpxsKXf2rg7-207" value="id_produto" style="text;html=1;align=center;verticalAlign=middle;resizable=0;points=[];autosize=1;strokeColor=none;fillColor=none;" parent="3Ne4XTjtrNpxsKXf2rg7-205" vertex="1">
          <mxGeometry y="56" width="160" height="30" as="geometry" />
        </mxCell>
        <mxCell id="3Ne4XTjtrNpxsKXf2rg7-208" value="quantidade" style="text;html=1;align=center;verticalAlign=middle;resizable=0;points=[];autosize=1;strokeColor=none;fillColor=none;" parent="3Ne4XTjtrNpxsKXf2rg7-205" vertex="1">
          <mxGeometry y="86" width="160" height="30" as="geometry" />
        </mxCell>
        <mxCell id="3Ne4XTjtrNpxsKXf2rg7-211" value="TIPO" style="swimlane;fontStyle=2;align=center;verticalAlign=top;childLayout=stackLayout;horizontal=1;startSize=26;horizontalStack=0;resizeParent=1;resizeLast=0;collapsible=1;marginBottom=0;rounded=0;shadow=0;strokeWidth=1;" parent="WIyWlLk6GJQsqaUBKTNV-1" vertex="1">
          <mxGeometry x="999" y="760" width="160" height="120" as="geometry">
            <mxRectangle x="230" y="140" width="160" height="26" as="alternateBounds" />
          </mxGeometry>
        </mxCell>
        <mxCell id="3Ne4XTjtrNpxsKXf2rg7-212" value="int (PK)" style="text;html=1;align=center;verticalAlign=middle;resizable=0;points=[];autosize=1;strokeColor=none;fillColor=none;" parent="3Ne4XTjtrNpxsKXf2rg7-211" vertex="1">
          <mxGeometry y="26" width="160" height="30" as="geometry" />
        </mxCell>
        <mxCell id="3Ne4XTjtrNpxsKXf2rg7-213" value="int (FK -&amp;gt; Produtos)" style="text;html=1;align=center;verticalAlign=middle;resizable=0;points=[];autosize=1;strokeColor=none;fillColor=none;" parent="3Ne4XTjtrNpxsKXf2rg7-211" vertex="1">
          <mxGeometry y="56" width="160" height="30" as="geometry" />
        </mxCell>
        <mxCell id="3Ne4XTjtrNpxsKXf2rg7-214" value="int" style="text;html=1;align=center;verticalAlign=middle;resizable=0;points=[];autosize=1;strokeColor=none;fillColor=none;" parent="3Ne4XTjtrNpxsKXf2rg7-211" vertex="1">
          <mxGeometry y="86" width="160" height="30" as="geometry" />
        </mxCell>
        <mxCell id="3Ne4XTjtrNpxsKXf2rg7-217" value="TABELA DE ESTOQUE&amp;nbsp;" style="rounded=0;whiteSpace=wrap;html=1;" parent="WIyWlLk6GJQsqaUBKTNV-1" vertex="1">
          <mxGeometry x="899" y="720" width="190" height="30" as="geometry" />
        </mxCell>
        <mxCell id="sIDqGCctWmeReR47S00x-6" value="" style="shape=stencil(fZbdcgIhDIWfZm8zQAg/17Z9j85U606tdqz9e/tmZ0c0uJ47xP0I5JwEBl59bp8/1kNwn6fj4W39M76ctgM/DCGM++36OJ50NPDjwKvN4bh+PR6+9i/z74/n6ctp9H74nlb4nbmSKZeJCu5vngmZ6jzzNAO7cX8FVKEsBuBKrgKg9oAE8gkCbLeUhEoEQKSUDZDLeWYRKIl8MEDRmHwfyBrBG6Amyu4+kDxxMoB3jhwgYu7TVAsVkFcWCs4CTBEoF4RctKeOxHIf8IXYpikHikAIf+MNUW94AGSSaoAoFIE3AlOyeWU+p2E5S9yfQZcQILVuQOwZdJNoS9Ls3wA5u2XZTIHECqeJ9kDpSaauRiNVcAY1QhdBzeLBli5WazpkSsBLV25uRaqWRyFawTQzRRIQYirJzq5atkBqLfouwqUxLBepthWb10vrWZY6UOAeyKCCtDV625mm9gmUC4Wc3VLJMMIE1BsA2FW9JraVlQB7n3c9oMKhCLEvIM1zBPZ25/umNQ1tVEC2G+fFCC8g398O2hNQuQlVu752DBfA+q0ptnqO5JFmeuIuo9DY7KjY71UxdJV4EntifPWorW++R/dC4t7V3DlIB5cHx2bc7eb3yvX//QNFp+bHDT/+Aw==);lineShape=1;strokeColor=default;" parent="WIyWlLk6GJQsqaUBKTNV-1" vertex="1">
          <mxGeometry x="526.1976009911482" y="348.79448524531676" width="5.497105614253194" height="5.48851319571494" as="geometry" />
        </mxCell>
        <mxCell id="WMO_bF8LU_Cvap4jmKQ--4" value="" style="rounded=0;whiteSpace=wrap;html=1;fillColor=#000000;" parent="WIyWlLk6GJQsqaUBKTNV-1" vertex="1">
          <mxGeometry width="1330" height="60" as="geometry" />
        </mxCell>
        <mxCell id="WMO_bF8LU_Cvap4jmKQ--6" value="&lt;font style=&quot;font-size: 46px;&quot;&gt;&lt;b&gt;&lt;i&gt;Loja GearTrack (Esportes e Lazer)&lt;/i&gt;&lt;/b&gt;&lt;/font&gt;" style="text;html=1;align=center;verticalAlign=middle;whiteSpace=wrap;rounded=0;fontColor=light-dark(#ffffff, #ededed);" parent="WIyWlLk6GJQsqaUBKTNV-1" vertex="1">
          <mxGeometry y="15" width="1330" height="30" as="geometry" />
        </mxCell>
      </root>
    </mxGraphModel>
  </diagram>
</mxfile>
